<svg width="207" height="49" viewBox="0 0 207 49" fill="none" xmlns="http://www.w3.org/2000/svg">
<rect y="20.3636" width="23.6364" height="23.6364" fill="#0D1669"/>
<rect x="28.3636" y="20.3638" width="23.6364" height="23.6364" fill="#DB7700"/>
<rect x="14.1818" y="5" width="23.6364" height="23.6364" fill="#DB3100"/>
<path d="M69.176 24.264C67.24 24.264 65.592 23.904 64.232 23.184C62.888 22.464 61.864 21.456 61.16 20.16C60.456 18.864 60.104 17.352 60.104 15.624C60.104 13.832 60.472 12.28 61.208 10.968C61.96 9.64 63.032 8.616 64.424 7.896C65.816 7.176 67.496 6.816 69.464 6.816C70.648 6.816 71.776 6.976 72.848 7.296C73.92 7.6 74.792 8.016 75.464 8.544L74.12 11.952C73.384 11.472 72.64 11.128 71.888 10.92C71.136 10.696 70.336 10.584 69.488 10.584C67.872 10.584 66.664 11.016 65.864 11.88C65.08 12.744 64.688 13.992 64.688 15.624C64.688 17.256 65.088 18.488 65.888 19.32C66.688 20.152 67.872 20.568 69.44 20.568C70.176 20.568 71 20.456 71.912 20.232V17.568H68.528V14.472H75.512V22.968C74.616 23.384 73.616 23.704 72.512 23.928C71.408 24.152 70.296 24.264 69.176 24.264ZM82.8337 24.264C81.2017 24.264 80.0177 23.856 79.2817 23.04C78.5457 22.208 78.1777 20.96 78.1777 19.296V7.08H82.4497V19.152C82.4497 20.272 82.9617 20.832 83.9857 20.832C84.1457 20.832 84.3057 20.824 84.4657 20.808C84.6417 20.792 84.8097 20.768 84.9697 20.736L84.9217 24C84.2817 24.176 83.5857 24.264 82.8337 24.264ZM92.3803 24.264C91.0683 24.264 89.9243 24.016 88.9483 23.52C87.9723 23.024 87.2123 22.312 86.6683 21.384C86.1243 20.456 85.8523 19.36 85.8523 18.096C85.8523 16.816 86.1243 15.72 86.6683 14.808C87.2123 13.88 87.9723 13.168 88.9483 12.672C89.9243 12.176 91.0683 11.928 92.3803 11.928C93.6923 11.928 94.8363 12.176 95.8123 12.672C96.7883 13.168 97.5403 13.88 98.0683 14.808C98.6123 15.72 98.8843 16.816 98.8843 18.096C98.8843 19.36 98.6123 20.456 98.0683 21.384C97.5403 22.312 96.7883 23.024 95.8123 23.52C94.8363 24.016 93.6923 24.264 92.3803 24.264ZM92.3803 21.12C93.0203 21.12 93.5483 20.88 93.9643 20.4C94.3803 19.92 94.5883 19.152 94.5883 18.096C94.5883 17.024 94.3803 16.256 93.9643 15.792C93.5483 15.312 93.0203 15.072 92.3803 15.072C91.7243 15.072 91.1883 15.312 90.7723 15.792C90.3563 16.256 90.1483 17.024 90.1483 18.096C90.1483 19.152 90.3563 19.92 90.7723 20.4C91.1883 20.88 91.7243 21.12 92.3803 21.12ZM108.618 24.264C107.834 24.264 107.114 24.096 106.458 23.76C105.802 23.408 105.314 22.952 104.994 22.392V24H100.842V7.08H105.114V13.608C105.45 13.096 105.93 12.688 106.554 12.384C107.194 12.08 107.882 11.928 108.618 11.928C109.642 11.928 110.538 12.176 111.306 12.672C112.09 13.168 112.698 13.88 113.13 14.808C113.562 15.72 113.778 16.816 113.778 18.096C113.778 19.36 113.554 20.456 113.106 21.384C112.674 22.312 112.066 23.024 111.282 23.52C110.514 24.016 109.626 24.264 108.618 24.264ZM107.274 21.12C107.914 21.12 108.442 20.88 108.858 20.4C109.274 19.92 109.482 19.152 109.482 18.096C109.482 17.024 109.274 16.256 108.858 15.792C108.442 15.312 107.914 15.072 107.274 15.072C106.618 15.072 106.082 15.312 105.666 15.792C105.25 16.256 105.042 17.024 105.042 18.096C105.042 19.152 105.25 19.92 105.666 20.4C106.082 20.88 106.618 21.12 107.274 21.12ZM120.141 24.264C118.605 24.264 117.469 23.848 116.733 23.016C116.013 22.168 115.653 20.88 115.653 19.152V12.192H119.925V19.272C119.925 20.424 120.421 21 121.413 21C121.989 21 122.461 20.792 122.829 20.376C123.197 19.96 123.381 19.408 123.381 18.72V12.192H127.653V24H123.477V22.536C122.709 23.688 121.597 24.264 120.141 24.264ZM134.843 24.264C133.755 24.264 132.747 24.152 131.819 23.928C130.907 23.704 130.131 23.392 129.491 22.992L130.475 20.232C131.067 20.568 131.755 20.848 132.539 21.072C133.323 21.28 134.099 21.384 134.867 21.384C135.459 21.384 135.883 21.304 136.139 21.144C136.395 20.968 136.523 20.744 136.523 20.472C136.523 20.232 136.435 20.056 136.259 19.944C136.099 19.816 135.867 19.72 135.563 19.656L132.899 19.224C131.907 19.064 131.139 18.704 130.595 18.144C130.051 17.584 129.779 16.856 129.779 15.96C129.779 15.128 130.011 14.416 130.475 13.824C130.939 13.216 131.587 12.752 132.419 12.432C133.251 12.096 134.203 11.928 135.275 11.928C136.123 11.928 136.963 12.032 137.795 12.24C138.627 12.432 139.355 12.752 139.979 13.2L138.923 15.912C138.459 15.592 137.883 15.328 137.195 15.12C136.507 14.896 135.891 14.784 135.347 14.784C134.691 14.784 134.227 14.88 133.955 15.072C133.683 15.248 133.547 15.464 133.547 15.72C133.547 16.152 133.843 16.416 134.435 16.512L137.099 16.968C138.123 17.128 138.907 17.48 139.451 18.024C140.011 18.552 140.291 19.272 140.291 20.184C140.291 21.48 139.795 22.488 138.803 23.208C137.811 23.912 136.491 24.264 134.843 24.264Z" fill="#0C1669"/>
<path d="M142.333 24V7.08H146.749V20.328H154.285V24H142.333ZM162.399 24.264C160.959 24.264 159.711 24.016 158.655 23.52C157.615 23.008 156.815 22.288 156.255 21.36C155.695 20.432 155.415 19.336 155.415 18.072C155.415 16.872 155.679 15.808 156.207 14.88C156.751 13.952 157.487 13.232 158.415 12.72C159.359 12.192 160.431 11.928 161.631 11.928C162.815 11.928 163.839 12.176 164.703 12.672C165.583 13.168 166.255 13.88 166.719 14.808C167.199 15.72 167.439 16.792 167.439 18.024V18.96H159.495C159.639 19.728 159.959 20.28 160.455 20.616C160.951 20.952 161.639 21.12 162.519 21.12C163.127 21.12 163.759 21.032 164.415 20.856C165.087 20.664 165.679 20.392 166.191 20.04L167.247 22.848C166.639 23.28 165.895 23.624 165.015 23.88C164.135 24.136 163.263 24.264 162.399 24.264ZM161.823 14.688C161.183 14.688 160.655 14.88 160.239 15.264C159.839 15.648 159.583 16.208 159.471 16.944H163.935C163.887 16.192 163.679 15.632 163.311 15.264C162.959 14.88 162.463 14.688 161.823 14.688ZM173.383 24.264C172.471 24.264 171.663 24.096 170.959 23.76C170.271 23.424 169.727 22.968 169.327 22.392C168.943 21.8 168.751 21.128 168.751 20.376C168.751 19.528 168.975 18.856 169.423 18.36C169.871 17.848 170.591 17.488 171.583 17.28C172.575 17.056 173.895 16.944 175.543 16.944H176.455V16.608C176.455 16.032 176.303 15.624 175.999 15.384C175.711 15.144 175.207 15.024 174.487 15.024C173.879 15.024 173.207 15.12 172.471 15.312C171.735 15.504 171.015 15.8 170.311 16.2L169.231 13.392C169.631 13.104 170.143 12.848 170.767 12.624C171.391 12.4 172.047 12.232 172.735 12.12C173.423 11.992 174.071 11.928 174.679 11.928C176.647 11.928 178.103 12.352 179.047 13.2C180.007 14.048 180.487 15.384 180.487 17.208V24H176.503V22.32C176.295 22.928 175.919 23.408 175.375 23.76C174.831 24.096 174.167 24.264 173.383 24.264ZM174.343 21.48C174.935 21.48 175.431 21.288 175.831 20.904C176.247 20.52 176.455 20.016 176.455 19.392V18.96H175.543C174.599 18.96 173.903 19.064 173.455 19.272C173.023 19.464 172.807 19.776 172.807 20.208C172.807 20.576 172.935 20.88 173.191 21.12C173.463 21.36 173.847 21.48 174.343 21.48ZM182.92 24V12.192H187.072V14.184C187.616 12.824 188.792 12.08 190.6 11.952L191.776 11.856L192.016 15.456L189.688 15.672C188.84 15.752 188.224 15.992 187.84 16.392C187.456 16.776 187.264 17.352 187.264 18.12V24H182.92ZM193.326 24V12.192H197.478V13.8C197.894 13.192 198.43 12.728 199.086 12.408C199.742 12.088 200.478 11.928 201.294 11.928C202.702 11.928 203.742 12.344 204.414 13.176C205.102 14.008 205.446 15.288 205.446 17.016V24H201.174V17.184C201.174 16.464 201.046 15.952 200.79 15.648C200.55 15.344 200.19 15.192 199.71 15.192C199.07 15.192 198.558 15.4 198.174 15.816C197.79 16.216 197.598 16.76 197.598 17.448V24H193.326Z" fill="#DA3100"/>
<path d="M62.0472 44V34.412H66.2088C67.2605 34.412 68.072 34.6659 68.6432 35.1736C69.2144 35.6723 69.5 36.3749 69.5 37.2816C69.5 37.9979 69.3141 38.5917 68.9424 39.0632C68.5707 39.5256 68.0357 39.8384 67.3376 40.0016C67.8 40.1467 68.1808 40.4957 68.48 41.0488L70.0848 44H68.1672L66.508 40.94C66.3448 40.6408 66.1499 40.4368 65.9232 40.328C65.7056 40.2192 65.4245 40.1648 65.08 40.1648H63.788V44H62.0472ZM63.788 38.8728H65.9096C67.1789 38.8728 67.8136 38.356 67.8136 37.3224C67.8136 36.2979 67.1789 35.7856 65.9096 35.7856H63.788V38.8728ZM74.3124 44.136C73.5598 44.136 72.9116 43.9955 72.3676 43.7144C71.8236 43.4333 71.402 43.0344 71.1028 42.5176C70.8126 42.0008 70.6676 41.3888 70.6676 40.6816C70.6676 39.9925 70.8081 39.3896 71.0892 38.8728C71.3793 38.356 71.7737 37.9525 72.2724 37.6624C72.7801 37.3632 73.3558 37.2136 73.9996 37.2136C74.9425 37.2136 75.686 37.5128 76.23 38.1112C76.783 38.7096 77.0596 39.5256 77.0596 40.5592V41.0624H72.2996C72.4265 42.2501 73.1065 42.844 74.3396 42.844C74.7113 42.844 75.083 42.7896 75.4548 42.6808C75.8265 42.5629 76.1665 42.3816 76.4748 42.1368L76.9508 43.2792C76.6334 43.5421 76.2345 43.7507 75.754 43.9048C75.2734 44.0589 74.7929 44.136 74.3124 44.136ZM74.0676 38.3696C73.5689 38.3696 73.1654 38.5237 72.8572 38.832C72.5489 39.1403 72.363 39.5573 72.2996 40.0832H75.6452C75.6089 39.5301 75.4548 39.1085 75.1828 38.8184C74.9198 38.5192 74.5481 38.3696 74.0676 38.3696ZM78.2971 35.9216V34.2624H80.2011V35.9216H78.2971ZM78.4059 44V37.3496H80.1059V44H78.4059ZM81.8995 44V37.3496H83.5587V38.3696C83.7581 38.0069 84.0347 37.7259 84.3883 37.5264C84.7419 37.3179 85.1499 37.2136 85.6123 37.2136C86.6096 37.2136 87.2624 37.6488 87.5707 38.5192C87.7792 38.1112 88.0784 37.7939 88.4683 37.5672C88.8581 37.3315 89.3024 37.2136 89.8011 37.2136C91.2971 37.2136 92.0451 38.1248 92.0451 39.9472V44H90.3451V40.0152C90.3451 39.5075 90.2589 39.1357 90.0867 38.9C89.9235 38.6643 89.6424 38.5464 89.2435 38.5464C88.7992 38.5464 88.4501 38.7051 88.1963 39.0224C87.9424 39.3307 87.8155 39.7613 87.8155 40.3144V44H86.1155V40.0152C86.1155 39.5075 86.0293 39.1357 85.8571 38.9C85.6939 38.6643 85.4173 38.5464 85.0275 38.5464C84.5832 38.5464 84.2341 38.7051 83.9803 39.0224C83.7264 39.3307 83.5995 39.7613 83.5995 40.3144V44H81.8995ZM95.9884 44.136C95.5079 44.136 95.0772 44.0453 94.6964 43.864C94.3247 43.6736 94.03 43.4197 93.8124 43.1024C93.6039 42.7851 93.4996 42.4269 93.4996 42.028C93.4996 41.5384 93.6266 41.1531 93.8804 40.872C94.1343 40.5819 94.5468 40.3733 95.118 40.2464C95.6892 40.1195 96.4554 40.056 97.4164 40.056H97.8924V39.7704C97.8924 39.3171 97.7927 38.9907 97.5932 38.7912C97.3938 38.5917 97.0583 38.492 96.5868 38.492C96.2151 38.492 95.8343 38.5509 95.4444 38.6688C95.0546 38.7776 94.6602 38.9499 94.2612 39.1856L93.7716 38.0296C94.0074 37.8664 94.2839 37.7259 94.6012 37.608C94.9276 37.4811 95.2676 37.3859 95.6212 37.3224C95.9839 37.2499 96.3239 37.2136 96.6412 37.2136C97.6114 37.2136 98.3322 37.4403 98.8036 37.8936C99.2751 38.3379 99.5108 39.0315 99.5108 39.9744V44H97.9196V42.9392C97.7655 43.3109 97.5207 43.6056 97.1852 43.8232C96.8498 44.0317 96.4508 44.136 95.9884 44.136ZM96.342 42.9664C96.7863 42.9664 97.1535 42.8123 97.4436 42.504C97.7428 42.1957 97.8924 41.8059 97.8924 41.3344V41.0352H97.43C96.5778 41.0352 95.9839 41.1032 95.6484 41.2392C95.322 41.3661 95.1588 41.6019 95.1588 41.9464C95.1588 42.2456 95.2631 42.4904 95.4716 42.6808C95.6802 42.8712 95.9703 42.9664 96.342 42.9664ZM104.337 46.584C103.721 46.584 103.14 46.5115 102.596 46.3664C102.061 46.2304 101.59 46.0173 101.182 45.7272L101.672 44.544C102.052 44.7979 102.46 44.9837 102.896 45.1016C103.331 45.2285 103.766 45.292 104.201 45.292C105.416 45.292 106.024 44.7072 106.024 43.5376V42.6264C105.833 42.9981 105.538 43.2928 105.14 43.5104C104.75 43.728 104.314 43.8368 103.834 43.8368C103.236 43.8368 102.714 43.7008 102.27 43.4288C101.826 43.1477 101.481 42.7579 101.236 42.2592C100.992 41.7605 100.869 41.1803 100.869 40.5184C100.869 39.8565 100.992 39.2808 101.236 38.7912C101.481 38.2925 101.826 37.9072 102.27 37.6352C102.714 37.3541 103.236 37.2136 103.834 37.2136C104.333 37.2136 104.777 37.3269 105.167 37.5536C105.557 37.7712 105.842 38.0659 106.024 38.4376V37.3496H107.683V43.3336C107.683 44.4125 107.397 45.224 106.826 45.768C106.255 46.312 105.425 46.584 104.337 46.584ZM104.296 42.5448C104.822 42.5448 105.239 42.3635 105.548 42.0008C105.856 41.6381 106.01 41.144 106.01 40.5184C106.01 39.8928 105.856 39.4032 105.548 39.0496C105.239 38.6869 104.822 38.5056 104.296 38.5056C103.77 38.5056 103.353 38.6869 103.045 39.0496C102.737 39.4032 102.583 39.8928 102.583 40.5184C102.583 41.144 102.737 41.6381 103.045 42.0008C103.353 42.3635 103.77 42.5448 104.296 42.5448ZM109.335 35.9216V34.2624H111.239V35.9216H109.335ZM109.444 44V37.3496H111.144V44H109.444ZM112.911 44V37.3496H114.57V38.3832C114.796 38.0024 115.1 37.7123 115.481 37.5128C115.871 37.3133 116.306 37.2136 116.787 37.2136C118.355 37.2136 119.139 38.1248 119.139 39.9472V44H117.439V40.0288C117.439 39.512 117.34 39.1357 117.14 38.9C116.95 38.6643 116.651 38.5464 116.243 38.5464C115.744 38.5464 115.345 38.7051 115.046 39.0224C114.756 39.3307 114.611 39.7432 114.611 40.26V44H112.911ZM120.757 35.9216V34.2624H122.661V35.9216H120.757ZM120.866 44V37.3496H122.566V44H120.866ZM124.332 44V37.3496H125.992V38.3832C126.218 38.0024 126.522 37.7123 126.903 37.5128C127.293 37.3133 127.728 37.2136 128.208 37.2136C129.777 37.2136 130.561 38.1248 130.561 39.9472V44H128.861V40.0288C128.861 39.512 128.762 39.1357 128.562 38.9C128.372 38.6643 128.072 38.5464 127.664 38.5464C127.166 38.5464 126.767 38.7051 126.468 39.0224C126.178 39.3307 126.032 39.7432 126.032 40.26V44H124.332ZM135.389 46.584C134.772 46.584 134.192 46.5115 133.648 46.3664C133.113 46.2304 132.642 46.0173 132.234 45.7272L132.723 44.544C133.104 44.7979 133.512 44.9837 133.947 45.1016C134.382 45.2285 134.818 45.292 135.253 45.292C136.468 45.292 137.075 44.7072 137.075 43.5376V42.6264C136.885 42.9981 136.59 43.2928 136.191 43.5104C135.801 43.728 135.366 43.8368 134.886 43.8368C134.287 43.8368 133.766 43.7008 133.322 43.4288C132.877 43.1477 132.533 42.7579 132.288 42.2592C132.043 41.7605 131.921 41.1803 131.921 40.5184C131.921 39.8565 132.043 39.2808 132.288 38.7912C132.533 38.2925 132.877 37.9072 133.322 37.6352C133.766 37.3541 134.287 37.2136 134.886 37.2136C135.384 37.2136 135.828 37.3269 136.218 37.5536C136.608 37.7712 136.894 38.0659 137.075 38.4376V37.3496H138.734V43.3336C138.734 44.4125 138.449 45.224 137.878 45.768C137.306 46.312 136.477 46.584 135.389 46.584ZM135.348 42.5448C135.874 42.5448 136.291 42.3635 136.599 42.0008C136.907 41.6381 137.062 41.144 137.062 40.5184C137.062 39.8928 136.907 39.4032 136.599 39.0496C136.291 38.6869 135.874 38.5056 135.348 38.5056C134.822 38.5056 134.405 38.6869 134.097 39.0496C133.788 39.4032 133.634 39.8928 133.634 40.5184C133.634 41.144 133.788 41.6381 134.097 42.0008C134.405 42.3635 134.822 42.5448 135.348 42.5448ZM144.325 44V34.412H150.703V35.7992H145.997V38.4376H150.404V39.8248H145.997V42.6128H150.703V44H144.325ZM154.793 44.136C154.213 44.136 153.701 43.9955 153.256 43.7144C152.821 43.4333 152.481 43.0344 152.236 42.5176C151.992 41.9917 151.869 41.3752 151.869 40.668C151.869 39.9517 151.992 39.3397 152.236 38.832C152.481 38.3152 152.821 37.9163 153.256 37.6352C153.701 37.3541 154.213 37.2136 154.793 37.2136C155.265 37.2136 155.691 37.3179 156.072 37.5264C156.452 37.7349 156.738 38.0115 156.928 38.356V34.412H158.628V44H156.969V42.8984C156.788 43.2792 156.502 43.5829 156.112 43.8096C155.722 44.0272 155.283 44.136 154.793 44.136ZM155.269 42.844C155.777 42.844 156.185 42.6627 156.493 42.3C156.801 41.9283 156.956 41.3843 156.956 40.668C156.956 39.9427 156.801 39.4032 156.493 39.0496C156.185 38.6869 155.777 38.5056 155.269 38.5056C154.761 38.5056 154.353 38.6869 154.045 39.0496C153.737 39.4032 153.583 39.9427 153.583 40.668C153.583 41.3843 153.737 41.9283 154.045 42.3C154.353 42.6627 154.761 42.844 155.269 42.844ZM162.798 44.136C161.166 44.136 160.35 43.2203 160.35 41.3888V37.3496H162.05V41.416C162.05 41.8875 162.145 42.2365 162.336 42.4632C162.526 42.6899 162.83 42.8032 163.247 42.8032C163.7 42.8032 164.072 42.6491 164.362 42.3408C164.652 42.0235 164.797 41.6064 164.797 41.0896V37.3496H166.497V44H164.838V43.0072C164.394 43.7597 163.714 44.136 162.798 44.136ZM171.34 44.136C170.642 44.136 170.035 43.9955 169.518 43.7144C169.001 43.4243 168.602 43.0163 168.321 42.4904C168.04 41.9645 167.9 41.348 167.9 40.6408C167.9 39.9336 168.04 39.3261 168.321 38.8184C168.602 38.3016 169.001 37.9072 169.518 37.6352C170.035 37.3541 170.642 37.2136 171.34 37.2136C171.767 37.2136 172.188 37.2816 172.605 37.4176C173.022 37.5536 173.367 37.744 173.639 37.9888L173.136 39.172C172.9 38.9635 172.632 38.8048 172.333 38.696C172.043 38.5872 171.762 38.5328 171.49 38.5328C170.901 38.5328 170.443 38.7187 170.116 39.0904C169.799 39.4531 169.64 39.9744 169.64 40.6544C169.64 41.3253 169.799 41.8557 170.116 42.2456C170.443 42.6264 170.901 42.8168 171.49 42.8168C171.753 42.8168 172.034 42.7624 172.333 42.6536C172.632 42.5448 172.9 42.3816 173.136 42.164L173.639 43.3608C173.367 43.5965 173.018 43.7869 172.592 43.932C172.175 44.068 171.757 44.136 171.34 44.136ZM176.831 44.136C176.351 44.136 175.92 44.0453 175.539 43.864C175.168 43.6736 174.873 43.4197 174.655 43.1024C174.447 42.7851 174.343 42.4269 174.343 42.028C174.343 41.5384 174.47 41.1531 174.723 40.872C174.977 40.5819 175.39 40.3733 175.961 40.2464C176.532 40.1195 177.298 40.056 178.259 40.056H178.735V39.7704C178.735 39.3171 178.636 38.9907 178.436 38.7912C178.237 38.5917 177.901 38.492 177.43 38.492C177.058 38.492 176.677 38.5509 176.287 38.6688C175.898 38.7776 175.503 38.9499 175.104 39.1856L174.615 38.0296C174.85 37.8664 175.127 37.7259 175.444 37.608C175.771 37.4811 176.111 37.3859 176.464 37.3224C176.827 37.2499 177.167 37.2136 177.484 37.2136C178.454 37.2136 179.175 37.4403 179.647 37.8936C180.118 38.3379 180.354 39.0315 180.354 39.9744V44H178.763V42.9392C178.608 43.3109 178.364 43.6056 178.028 43.8232C177.693 44.0317 177.294 44.136 176.831 44.136ZM177.185 42.9664C177.629 42.9664 177.996 42.8123 178.287 42.504C178.586 42.1957 178.735 41.8059 178.735 41.3344V41.0352H178.273C177.421 41.0352 176.827 41.1032 176.491 41.2392C176.165 41.3661 176.002 41.6019 176.002 41.9464C176.002 42.2456 176.106 42.4904 176.315 42.6808C176.523 42.8712 176.813 42.9664 177.185 42.9664ZM185.126 44.136C183.367 44.136 182.487 43.2656 182.487 41.5248V38.628H181.209V37.3496H182.487V35.364H184.187V37.3496H186.2V38.628H184.187V41.4296C184.187 41.8648 184.283 42.1912 184.473 42.4088C184.663 42.6264 184.972 42.7352 185.398 42.7352C185.525 42.7352 185.656 42.7216 185.792 42.6944C185.928 42.6581 186.069 42.6219 186.214 42.5856L186.472 43.8368C186.309 43.9275 186.1 44 185.847 44.0544C185.602 44.1088 185.361 44.136 185.126 44.136ZM187.19 35.9216V34.2624H189.094V35.9216H187.19ZM187.299 44V37.3496H188.999V44H187.299ZM193.798 44.136C193.109 44.136 192.511 43.9955 192.003 43.7144C191.495 43.4333 191.101 43.0344 190.82 42.5176C190.539 41.9917 190.398 41.3752 190.398 40.668C190.398 39.9608 190.539 39.3488 190.82 38.832C191.101 38.3152 191.495 37.9163 192.003 37.6352C192.511 37.3541 193.109 37.2136 193.798 37.2136C194.487 37.2136 195.086 37.3541 195.593 37.6352C196.101 37.9163 196.495 38.3152 196.776 38.832C197.058 39.3488 197.198 39.9608 197.198 40.668C197.198 41.3752 197.058 41.9917 196.776 42.5176C196.495 43.0344 196.101 43.4333 195.593 43.7144C195.086 43.9955 194.487 44.136 193.798 44.136ZM193.798 42.844C194.306 42.844 194.714 42.6627 195.022 42.3C195.33 41.9283 195.484 41.3843 195.484 40.668C195.484 39.9427 195.33 39.4032 195.022 39.0496C194.714 38.6869 194.306 38.5056 193.798 38.5056C193.29 38.5056 192.882 38.6869 192.574 39.0496C192.266 39.4032 192.112 39.9427 192.112 40.668C192.112 41.3843 192.266 41.9283 192.574 42.3C192.882 42.6627 193.29 42.844 193.798 42.844ZM198.601 44V37.3496H200.26V38.3832C200.487 38.0024 200.791 37.7123 201.172 37.5128C201.561 37.3133 201.997 37.2136 202.477 37.2136C204.046 37.2136 204.83 38.1248 204.83 39.9472V44H203.13V40.0288C203.13 39.512 203.03 39.1357 202.831 38.9C202.64 38.6643 202.341 38.5464 201.933 38.5464C201.435 38.5464 201.036 38.7051 200.736 39.0224C200.446 39.3307 200.301 39.7432 200.301 40.26V44H198.601Z" fill="#DB7700"/>
</svg>
